<svg xmlns="http://www.w3.org/2000/svg" width="1000" height="220" viewBox="0 0 1000 220">
<defs><linearGradient id="g" x1="0" x2="1" y1="0" y2="1"><stop stop-color="#FFFEFB" stop-opacity=".92"/><stop offset=".45" stop-color="#7A9BB5" stop-opacity=".42"/><stop offset="1" stop-color="#2E3F4F" stop-opacity=".96"/></linearGradient><filter id="glow"><feGaussianBlur stdDeviation="8" result="b"/><feMerge><feMergeNode in="b"/><feMergeNode in="SourceGraphic"/></feMerge></filter></defs>
<g font-family="Arial" text-anchor="middle" fill="#FFFEFB">
<g transform="translate(100 110)"><circle r="68" fill="url(#g)" stroke="#FFE135" stroke-width="3" filter="url(#glow)"/><path d="M-30 5 0-25 30 5v35H12V18h-24v22h-18z" fill="#FFE135"/><text y="100" font-size="16">HOME</text></g>
<g transform="translate(300 110)"><circle r="68" fill="url(#g)" stroke="#FFFEFB" stroke-opacity=".35" stroke-width="2"/><path d="M0 38C-58 5-35-35-8-25L0-14l8-11c27-10 50 30-8 63Z" fill="#FFE135"/><text y="100" font-size="16">MATCHES</text></g>
<g transform="translate(500 110)"><circle r="68" fill="url(#g)" stroke="#FFE135" stroke-width="3" filter="url(#glow)"/><path d="m-28-8 64-27-28 66-10-25z" fill="#FFE135"/><text y="100" font-size="16">APPLY</text></g>
<g transform="translate(700 110)"><circle r="68" fill="url(#g)" stroke="#FFFEFB" stroke-opacity=".35" stroke-width="2"/><path d="M-35-28h70v48h-36l-20 18v-18h-14z" fill="#FFE135"/><circle cx="-15" cy="-4" r="4" fill="#2E3F4F"/><circle cx="0" cy="-4" r="4" fill="#2E3F4F"/><circle cx="15" cy="-4" r="4" fill="#2E3F4F"/><text y="100" font-size="16">MESSAGES</text></g>
<g transform="translate(900 110)"><circle r="68" fill="url(#g)" stroke="#FFFEFB" stroke-opacity=".35" stroke-width="2"/><circle cy="-16" r="20" fill="#FFE135"/><path d="M-38 42c2-35 74-35 76 0z" fill="#FFE135"/><text y="100" font-size="16">PROFILE</text></g></g></svg>